<?xml version="1.0" encoding="UTF-8" standalone="no"?>
<!DOCTYPE svg PUBLIC "-//W3C//DTD SVG 1.1//EN" "http://www.w3.org/Graphics/SVG/1.1/DTD/svg11.dtd">
<svg xmlns="http://www.w3.org/2000/svg" version="1.1" viewBox="0 0 604 443">

<g xmlns="http://www.w3.org/2000/svg" fill="#000000">
<path d="   M 332.20 443.02   L 330.94 443.00   L 326.72 440.80   A 2.05 1.92 43.0 0 0 324.83 440.80   L 320.94 443.00   L 318.94 443.00   L 314.80 440.12   Q 312.89 438.80 310.54 439.96   Q 308.17 441.12 306.40 440.51   A 0.86 0.76 -85.1 0 1 305.88 439.81   C 305.50 436.11 306.42 432.10 306.13 429.06   C 305.04 417.59 295.13 410.98 288.06 402.19   C 285.13 398.53 282.13 399.73 278.13 400.43   C 254.94 404.46 226.76 401.27 211.44 381.31   C 209.83 379.22 208.35 378.54 205.57 378.45   Q 190.35 378.00 175.40 376.02   Q 173.56 375.78 172.53 377.31   Q 164.38 389.32 158.28 402.32   C 152.45 414.73 147.70 424.42 142.53 435.48   Q 141.66 437.36 139.77 436.51   C 137.32 435.40 134.79 433.44 132.20 433.69   C 127.55 434.14 127.49 437.66 126.10 441.15   A 1.43 1.42 -58.9 0 1 123.85 441.72   L 115.06 434.14   A 1.40 1.19 61.0 0 0 114.19 433.81   Q 112.23 433.88 110.18 434.91   Q 108.48 435.77 107.08 434.48   Q 105.26 432.79 103.82 430.38   Q 93.10 412.46 96.00 391.50   Q 96.60 387.20 97.50 372.00   Q 97.81 366.81 96.23 363.92   Q 92.83 357.71 89.20 351.60   C 81.91 339.32 80.02 328.58 79.59 313.85   C 79.42 307.73 77.74 305.31 74.69 300.31   Q 72.52 296.77 68.87 297.78   Q 56.41 301.23 44.14 305.29   Q 41.88 306.04 39.80 304.93   Q 37.49 303.70 39.76 302.40   Q 42.38 300.88 45.29 299.76   Q 56.38 295.48 67.23 290.64   A 1.38 1.23 -2.2 0 0 67.91 289.99   C 69.98 285.55 67.69 278.29 62.00 277.52   C 57.97 276.98 40.91 275.61 38.88 272.95   C 36.82 270.25 40.58 269.97 42.21 270.09   Q 52.66 270.84 64.13 271.29   Q 66.46 271.39 67.03 269.13   Q 69.28 260.26 71.50 251.25   C 73.17 244.49 57.00 234.58 54.94 227.81   C 54.22 225.45 56.60 225.72 57.76 226.52   Q 65.45 231.82 72.27 238.23   Q 73.51 239.40 74.84 240.16   A 1.66 1.65 -56.5 0 0 76.98 239.72   Q 80.78 234.66 83.95 229.45   C 87.37 223.84 86.26 222.41 84.08 216.99   Q 68.13 177.32 64.75 133.50   C 64.44 129.48 66.99 128.65 69.80 130.89   Q 76.84 136.50 83.71 142.33   C 84.97 143.40 86.94 145.28 88.49 145.56   Q 90.48 145.93 91.24 144.05   Q 100.25 121.73 110.74 101.41   C 122.62 78.38 143.23 62.17 166.80 52.25   C 208.93 34.51 252.86 31.82 298.26 32.52   C 327.60 32.97 356.75 37.00 385.27 43.88   Q 414.07 50.81 440.94 65.31   C 483.48 88.27 500.92 131.81 506.64 177.26   Q 508.95 195.69 511.00 205.75   C 511.90 210.15 521.10 210.24 524.51 210.68   C 539.11 212.60 554.95 219.76 563.37 231.73   C 572.84 245.16 570.65 263.65 560.82 276.82   C 554.69 285.04 545.87 292.42 536.40 297.11   Q 531.06 299.75 526.38 302.26   Q 524.03 303.52 524.23 306.17   Q 526.46 336.60 525.05 366.75   Q 523.96 390.13 515.13 411.64   C 512.56 417.90 511.26 421.48 507.18 425.45   Q 505.65 426.93 503.74 425.99   Q 496.15 422.26 488.93 426.69   Q 487.34 427.67 485.99 426.38   Q 481.82 422.42 475.54 422.25   A 1.07 1.06 88.5 0 1 474.50 421.26   C 474.16 416.52 473.70 412.42 472.20 407.72   Q 467.08 391.63 462.46 375.08   Q 462.10 373.78 461.43 374.96   C 458.72 379.71 457.68 385.01 455.06 389.71   Q 453.76 392.05 451.33 390.94   Q 446.13 388.59 442.74 392.87   A 2.27 2.25 23.9 0 1 440.58 393.69   L 435.50 392.83   A 1.49 0.75 20.2 0 0 434.55 392.94   L 430.77 395.37   Q 428.94 396.55 427.58 395.70   C 425.48 394.38 423.55 389.94 421.43 390.32   A 1.35 1.14 -73.0 0 0 420.64 390.83   C 417.11 395.61 415.77 399.51 415.46 405.90   C 414.97 415.97 411.99 425.69 400.25 426.95   A 1.79 1.21 46.8 0 1 399.32 426.74   L 395.45 424.71   Q 395.20 424.57 394.51 424.57   L 389.31 424.52   A 1.38 0.79 58.8 0 1 388.48 424.06   C 384.38 419.72 382.10 423.54 378.07 422.12   C 375.34 421.16 373.82 417.84 370.86 416.31   C 366.61 414.12 357.51 416.30 352.99 417.38   A 1.52 1.34 9.7 0 0 352.18 417.88   C 349.66 421.05 349.61 425.62 347.49 429.49   C 344.37 435.15 337.80 439.99 332.20 443.02   Z   M 241.78 75.40   C 233.31 63.37 221.19 60.97 207.36 62.37   Q 193.67 63.76 184.05 74.57   A 1.07 1.07 -62.2 0 0 184.59 76.32   Q 186.00 76.69 187.98 76.35   C 205.10 73.48 223.84 75.43 241.11 76.59   Q 242.70 76.70 241.78 75.40   Z   M 325.16 137.24   C 325.50 138.29 325.26 141.44 325.27 142.58   C 325.31 151.74 324.15 159.42 322.67 169.79   Q 320.12 187.67 313.89 204.64   C 312.87 207.44 310.93 211.31 309.90 214.75   Q 309.35 216.59 310.62 217.72   L 317.61 223.98   Q 319.25 225.44 321.62 224.52   Q 332.00 220.49 342.80 216.36   C 343.98 215.90 345.68 215.72 345.50 217.55   C 345.20 220.48 330.02 229.27 327.04 231.40   A 1.56 1.55 -28.7 0 0 326.50 233.24   Q 328.44 238.15 331.66 242.28   Q 333.05 244.06 335.23 243.50   Q 352.00 239.28 369.01 236.28   Q 371.59 235.83 371.90 237.93   A 0.86 0.78 -22.1 0 1 371.52 238.72   Q 369.25 240.22 366.68 241.16   Q 351.93 246.56 337.30 252.32   Q 335.61 252.98 335.19 254.75   Q 334.31 258.47 335.04 261.35   Q 335.70 263.98 338.41 264.21   Q 349.95 265.16 360.25 265.51   Q 364.75 265.67 368.97 267.14   A 0.87 0.78 7.7 0 1 369.53 267.80   Q 369.77 269.69 367.50 269.98   Q 351.31 272.00 335.33 272.74   A 2.56 2.52 20.1 0 0 333.57 273.54   Q 328.40 279.02 324.52 285.13   A 1.99 1.99 39.8 0 0 324.74 287.56   C 329.23 292.45 360.63 324.05 330.49 317.30   C 315.07 313.85 301.06 310.02 286.50 310.75   C 269.03 311.63 254.03 321.93 245.49 337.01   A 0.50 0.50 14.9 0 0 245.92 337.75   C 251.26 337.81 257.47 337.23 262.02 337.74   C 271.16 338.77 287.37 345.50 284.05 357.51   C 282.72 362.34 276.70 362.51 272.46 363.05   C 269.96 363.37 268.25 364.39 266.07 365.36   A 1.53 1.52 60.8 0 1 264.19 364.82   C 261.02 360.13 257.70 355.31 251.05 358.03   Q 248.57 359.05 245.96 359.11   C 241.68 359.22 234.75 354.95 232.06 360.56   Q 230.46 363.90 228.29 366.09   A 1.69 1.44 12.7 0 1 227.45 366.53   Q 222.85 367.45 218.55 369.32   A 2.61 2.60 79.1 0 0 216.99 371.63   C 216.73 380.55 226.44 384.60 233.14 388.21   A 1.48 1.48 -70.3 0 0 235.29 387.19   C 237.72 374.92 254.34 377.92 260.61 384.94   C 262.47 387.02 263.64 389.58 264.71 392.19   A 2.05 2.04 -13.6 0 0 266.78 393.45   Q 277.10 392.56 286.14 388.07   Q 293.57 384.38 293.63 384.35   C 302.34 380.65 312.59 379.04 320.08 375.81   C 327.43 372.63 346.38 360.05 346.50 351.00   C 346.69 336.44 348.89 325.05 358.75 314.05   C 360.28 312.34 362.03 313.51 361.20 315.85   C 355.08 333.20 352.76 347.19 355.17 364.76   Q 357.84 384.20 359.48 403.54   Q 359.64 405.36 361.44 405.70   Q 366.36 406.64 369.91 405.30   C 375.78 403.09 374.66 400.34 381.90 403.71   C 386.27 405.74 390.69 403.27 394.35 406.33   A 4.85 3.37 57.9 0 0 396.98 407.45   L 406.38 407.70   A 1.13 1.06 -86.9 0 0 407.47 406.65   C 407.82 402.43 407.44 398.20 409.22 394.49   C 413.71 385.11 419.48 377.06 422.37 366.04   C 424.66 357.31 426.41 349.68 425.50 341.50   Q 424.94 336.45 421.97 315.50   Q 421.36 311.18 424.26 312.80   A 1.63 1.19 85.7 0 1 424.88 313.53   C 428.50 321.91 439.74 315.91 443.42 310.96   Q 447.70 305.22 454.48 303.63   C 457.87 302.83 459.63 302.12 461.18 299.27   Q 461.90 297.94 462.67 297.50   C 467.36 294.76 463.98 305.39 463.83 306.41   Q 463.49 308.84 465.92 309.17   C 470.34 309.77 468.48 312.08 467.66 314.50   Q 465.83 319.90 465.75 321.25   Q 465.02 334.01 463.93 347.59   Q 463.77 349.58 465.63 350.31   C 475.86 354.34 484.83 345.80 486.83 336.27   Q 487.37 333.68 486.54 331.20   Q 484.21 324.23 485.26 317.08   C 486.32 309.91 486.99 301.97 487.75 297.50   C 488.66 292.17 482.74 294.97 480.49 295.34   Q 478.38 295.70 479.00 293.65   Q 482.03 283.62 484.94 275.15   C 486.28 271.23 488.97 272.15 489.72 275.67   Q 490.97 281.48 491.94 284.06   C 496.54 296.36 493.86 307.35 492.50 321.00   Q 492.25 323.54 493.05 325.54   A 0.86 0.82 -6.7 0 0 493.74 326.06   Q 503.92 327.29 513.12 326.53   Q 515.57 326.32 515.31 323.87   Q 511.29 284.96 506.02 246.83   Q 504.41 235.10 502.08 223.88   Q 501.67 221.90 499.67 221.63   C 466.99 217.17 432.06 222.69 400.75 232.27   Q 395.54 233.86 390.27 235.31   C 385.85 236.53 383.90 236.10 380.19 233.81   C 367.84 226.21 349.26 235.27 336.55 238.08   A 1.40 1.30 -35.5 0 1 335.62 237.96   Q 329.90 234.88 335.31 231.31   Q 346.50 223.94 349.41 221.65   C 355.09 217.19 351.98 213.04 349.20 208.28   Q 348.21 206.58 349.82 205.45   C 365.56 194.33 382.14 189.45 400.46 184.84   C 418.20 180.38 439.45 178.68 457.42 177.97   C 468.78 177.51 480.94 178.36 492.74 179.13   Q 496.18 179.36 495.75 175.75   C 493.65 158.07 489.08 143.60 482.88 127.83   C 471.26 98.29 446.94 78.81 414.50 78.25   C 384.12 77.72 353.69 85.42 327.44 101.19   C 323.13 103.77 316.80 107.93 316.01 113.16   C 314.75 121.42 315.38 131.13 315.75 139.49   A 0.33 0.32 73.4 0 0 316.24 139.76   L 322.01 136.14   Q 324.32 134.70 325.16 137.24   Z   M 141.15 174.83   C 148.96 166.73 166.98 162.38 176.69 160.43   Q 180.14 159.74 181.19 157.69   C 184.82 150.61 185.94 141.23 187.44 133.99   Q 189.90 122.03 192.18 110.03   Q 192.65 107.55 192.54 105.63   Q 192.43 103.70 190.49 103.74   C 169.50 104.13 147.93 105.39 129.26 113.96   Q 123.79 116.47 121.50 122.50   Q 114.96 139.73 108.46 156.99   Q 106.75 161.53 110.51 164.26   Q 116.96 168.95 123.44 173.60   C 130.59 178.72 133.92 181.52 142.00 180.25   Q 153.43 178.45 174.50 176.25   C 198.35 173.76 227.02 178.37 248.51 180.44   Q 255.07 181.07 262.06 177.06   Q 285.30 163.74 300.81 151.81   C 307.01 147.05 308.27 146.35 308.25 138.00   Q 308.22 127.11 307.55 116.94   Q 307.42 115.00 305.57 114.36   Q 282.74 106.47 258.75 105.25   Q 240.85 104.33 222.61 103.93   Q 219.45 103.86 218.14 106.74   Q 215.94 111.58 214.50 117.75   Q 210.04 136.98 207.08 156.50   A 0.82 0.76 -69.9 0 0 207.41 157.29   Q 209.38 158.62 213.25 159.75   C 224.44 163.02 234.72 165.48 244.34 172.56   Q 245.50 173.42 246.27 174.63   C 248.16 177.56 242.60 176.67 241.28 176.36   C 229.63 173.66 218.26 171.50 206.09 171.21   C 193.75 170.92 180.74 170.59 168.48 172.01   C 159.02 173.11 150.83 175.85 141.32 175.22   Q 140.80 175.19 141.15 174.83   Z   M 116.3214 120.3605   A 2.48 2.48 0.0 0 0 114.9005 117.1540   L 114.4714 116.9884   A 2.48 2.48 0.0 0 0 111.2648 118.4093   L 98.2186 152.2195   A 2.48 2.48 0.0 0 0 99.6395 155.4260   L 100.0686 155.5916   A 2.48 2.48 0.0 0 0 103.2752 154.1707   L 116.3214 120.3605   Z   M 287.90 195.50   C 285.93 198.59 291.96 199.78 293.73 200.60   A 0.87 0.62 18.1 0 1 294.25 201.31   L 293.90 205.03   A 0.85 0.58 -76.0 0 0 294.17 205.76   C 297.80 207.94 304.17 213.21 305.75 207.50   C 310.53 190.23 316.37 172.03 318.10 154.51   Q 318.37 151.80 316.38 153.66   L 278.25 189.34   A 0.35 0.33 33.5 0 0 278.38 189.89   L 287.26 193.26   A 1.55 1.45 -62.9 0 1 287.90 195.50   Z   M 79.89 154.50   Q 78.88 153.42 78.70 154.89   Q 78.20 159.00 78.81 163.49   C 81.06 179.96 85.72 201.18 94.42 215.50   A 0.38 0.37 49.9 0 0 95.02 215.56   Q 101.57 208.09 108.23 200.72   Q 110.10 198.64 111.30 196.45   A 1.53 1.53 -48.9 0 0 111.19 194.82   C 103.47 184.14 95.34 173.81 87.35 163.33   Q 83.88 158.79 79.89 154.50   Z   M 280.92 199.71   C 280.06 197.20 279.05 195.83 276.15 195.62   C 269.52 195.15 264.36 199.35 257.87 195.41   C 254.40 193.31 250.72 189.63 246.39 191.96   Q 236.12 197.51 229.14 206.88   Q 216.38 224.02 205.90 242.75   Q 204.66 244.97 202.16 244.53   C 198.90 243.96 198.11 245.06 195.82 246.62   C 188.17 251.85 175.32 251.90 168.00 250.75   C 165.74 250.39 163.82 247.86 160.95 247.59   Q 159.16 247.41 157.44 247.49   A 3.03 3.02 -20.3 0 1 154.92 246.33   C 143.03 231.02 140.39 213.27 143.86 194.52   Q 144.64 190.33 140.75 191.00   C 124.24 193.84 112.61 205.26 103.24 218.48   Q 96.98 227.31 98.07 238.24   C 98.59 243.44 94.02 243.50 90.44 242.86   Q 88.18 242.45 86.33 243.80   Q 83.09 246.16 85.75 249.28   Q 89.69 253.91 93.45 258.69   C 94.22 259.67 94.86 261.23 93.00 261.47   Q 91.48 261.66 90.03 260.83   L 80.93 255.56   Q 79.79 254.90 80.30 256.12   Q 81.25 258.38 82.98 260.29   Q 88.00 265.86 90.26 273.02   Q 91.18 275.97 88.32 277.15   Q 84.07 278.88 78.92 279.43   Q 76.58 279.68 76.93 282.00   Q 77.81 288.00 80.34 292.95   C 96.52 324.57 132.06 349.23 164.01 362.72   Q 184.90 371.54 206.70 368.85   Q 209.34 368.52 209.27 365.87   Q 209.15 360.99 213.01 360.66   Q 218.17 360.23 223.19 359.05   A 1.20 0.98 3.9 0 0 223.95 358.51   Q 224.85 356.79 224.24 353.69   A 0.97 0.96 -10.4 0 0 223.13 352.93   C 216.93 354.02 211.57 356.93 205.27 357.67   C 169.96 361.79 133.70 348.44 109.23 322.77   C 102.64 315.86 95.89 309.96 92.83 300.55   C 91.68 296.99 90.80 293.89 94.06 291.56   C 100.23 287.17 120.43 293.00 127.90 294.50   Q 151.59 299.25 175.74 298.12   C 214.95 296.30 246.87 286.13 286.52 273.05   C 291.46 271.42 297.66 270.78 300.80 275.27   C 303.46 279.06 301.75 284.63 300.31 288.80   Q 300.01 289.67 300.88 289.38   C 310.09 286.30 318.60 283.17 324.26 274.74   Q 325.88 272.32 323.00 271.89   C 320.11 271.46 316.26 271.30 313.70 269.63   C 307.24 265.39 321.13 263.74 323.16 263.32   Q 326.30 262.67 323.20 261.82   Q 315.37 259.66 307.60 257.32   Q 304.09 256.27 306.00 252.75   Q 309.37 246.55 313.76 241.13   Q 316.30 238.00 312.57 239.56   C 307.66 241.62 301.37 245.93 295.98 245.50   Q 295.12 245.43 295.62 244.73   C 299.26 239.65 305.17 236.39 310.13 232.07   Q 311.52 230.86 310.62 229.25   C 308.27 225.00 302.87 221.24 297.83 223.12   Q 288.36 226.66 278.76 223.42   A 1.96 1.96 15.4 0 1 277.47 221.15   C 279.07 213.70 283.69 210.81 287.54 204.93   A 1.09 1.04 30.3 0 0 287.10 203.41   L 281.50 200.45   A 1.40 1.03 88.2 0 1 280.92 199.71   Z   M 513.76 221.48   C 513.40 225.01 514.10 227.68 514.44 230.71   Q 517.54 258.15 521.45 285.19   A 1.11 1.11 -21.5 0 0 523.18 285.94   Q 534.28 278.37 539.74 266.54   C 549.65 245.09 536.33 225.18 514.43 220.99   A 0.56 0.56 8.4 0 0 513.76 221.48   Z   M 274.09 300.10   A 0.34 0.34 -17.4 0 0 274.59 300.36   C 283.10 296.00 291.71 291.34 294.75 281.50   Q 295.96 277.59 292.00 278.75   L 273.27 284.24   A 1.22 1.22 -11.5 0 0 272.40 285.55   L 274.09 300.10   Z   M 239.16 295.93   C 238.89 300.37 239.72 305.60 239.97 308.91   Q 240.67 318.64 241.22 327.97   Q 241.32 329.69 242.58 328.52   Q 252.86 318.96 262.30 309.15   C 265.23 306.10 266.85 304.78 266.86 300.94   Q 266.86 295.32 266.25 289.74   Q 265.99 287.36 263.66 287.91   Q 254.59 290.02 245.25 292.75   Q 241.33 293.89 239.59 295.13   A 1.08 1.00 75.6 0 0 239.16 295.93   Z   M 107.45 312.07   Q 108.20 312.80 108.25 311.75   L 108.80 299.34   Q 108.88 297.59 107.19 297.09   Q 103.07 295.88 98.30 297.57   A 0.51 0.50 -21.3 0 0 98.00 298.24   Q 101.30 306.13 107.45 312.07   Z   M 144.70 339.82   C 169.84 355.84 202.07 357.09 227.71 341.01   C 231.90 338.38 234.23 335.84 234.55 331.00   Q 235.60 315.11 232.42 299.12   A 1.99 1.99 -4.4 0 0 230.54 297.51   Q 228.36 297.43 226.51 297.80   Q 213.19 300.47 199.75 302.50   C 184.18 304.85 161.90 303.14 143.47 303.75   A 1.46 1.42 -1.6 0 0 142.06 305.20   L 142.76 336.46   Q 142.81 338.61 144.70 339.82   Z   M 116.00 318.00   C 116.28 322.98 129.97 331.59 134.17 334.10   A 0.71 0.71 16.2 0 0 135.25 333.51   Q 135.50 322.00 135.25 310.50   Q 135.14 305.50 134.36 303.04   A 0.98 0.95 -0.9 0 0 133.70 302.42   Q 126.44 300.38 117.41 299.62   A 1.54 1.53 3.4 0 0 115.74 301.10   Q 115.51 309.38 116.00 318.00   Z   M 426.42 381.31   Q 435.96 382.26 445.51 381.65   C 450.50 381.33 452.26 376.49 452.75 372.75   Q 453.65 365.82 454.74 352.10   C 455.10 347.59 456.25 343.29 457.33 338.96   Q 459.65 329.59 458.84 319.99   C 458.72 318.55 458.02 314.11 455.85 318.33   Q 448.89 331.87 435.44 338.94   Q 433.16 340.13 431.87 341.67   A 1.44 1.25 67.5 0 0 431.57 342.57   C 431.86 355.79 429.05 367.40 425.51 379.97   A 1.06 1.05 -79.4 0 0 426.42 381.31   Z   M 108.20 368.66   Q 109.77 369.26 111.76 369.07   C 118.58 368.41 126.37 367.85 132.67 369.40   C 139.23 371.01 157.68 380.20 151.05 389.55   C 145.27 397.68 122.17 395.03 111.86 395.44   C 109.16 395.55 106.55 395.36 103.99 396.39   A 2.02 2.01 -7.2 0 0 102.75 397.98   Q 101.74 405.39 103.17 412.72   C 104.41 419.03 110.03 419.13 113.69 423.57   Q 115.29 425.50 117.25 423.94   C 122.02 420.13 124.51 426.96 130.08 425.23   A 1.74 1.37 -74.3 0 0 130.86 424.66   Q 133.64 421.14 138.27 421.00   Q 140.36 420.94 141.41 419.13   C 146.52 410.33 151.17 399.08 155.10 391.78   Q 159.53 383.54 164.55 375.51   Q 165.86 373.41 163.88 371.93   Q 162.28 370.74 159.68 369.59   Q 139.35 360.60 120.98 348.75   Q 119.43 347.75 117.58 347.75   L 96.70 347.75   A 0.31 0.31 -13.8 0 0 96.43 348.20   C 99.94 354.62 104.40 359.95 106.68 367.06   A 2.52 2.52 1.5 0 0 108.20 368.66   Z   M 343.56 383.37   C 347.44 379.16 350.28 401.89 352.28 400.98   A 0.91 0.67 80.6 0 0 352.68 400.19   Q 352.40 382.78 348.90 366.47   Q 348.45 364.33 346.95 365.92   C 334.45 379.23 324.49 391.27 306.34 398.40   C 305.01 398.92 301.85 399.73 300.74 400.49   Q 297.84 402.46 300.52 404.73   C 307.95 411.02 312.49 418.16 313.40 427.74   Q 313.70 430.85 316.80 430.54   Q 320.87 430.15 324.28 431.33   A 1.68 1.57 44.9 0 0 325.23 431.36   C 332.09 429.34 337.24 432.29 340.55 423.95   C 345.04 412.62 342.71 398.83 343.23 384.25   A 1.48 1.10 73.9 0 1 343.56 383.37   Z   M 486.82 414.02   C 512.05 420.91 516.62 382.74 516.23 367.03   Q 516.21 366.20 515.59 366.76   C 507.89 373.77 501.51 380.44 491.01 382.99   C 486.50 384.08 480.16 384.27 474.83 384.99   A 1.60 1.60 78.7 0 0 473.50 386.99   Q 475.75 395.42 478.73 403.60   C 480.54 408.54 480.91 412.40 486.82 414.02   Z"/>
<path d="   M 385.19 96.07   C 386.69 93.87 401.06 92.65 404.12 92.54   Q 416.17 92.09 428.18 93.13   C 436.72 93.87 437.77 96.13 439.87 103.54   Q 446.60 127.36 449.07 151.99   C 449.50 156.28 446.71 156.10 443.12 156.57   Q 423.53 159.11 402.86 161.37   A 2.62 2.62 -19.6 0 1 400.37 160.19   Q 399.51 158.86 398.95 156.26   C 394.41 134.85 388.52 117.88 384.72 98.35   A 3.03 3.02 56.8 0 1 385.19 96.07   Z   M 439.01 146.60   C 430.57 132.52 417.72 124.52 401.08 124.75   Q 398.11 124.79 398.81 127.67   Q 401.55 139.03 404.75 150.25   C 405.80 153.92 406.91 153.26 409.90 152.93   Q 423.08 151.47 436.20 149.58   C 438.10 149.31 440.54 149.15 439.01 146.60   Z"/>
<path d="   M 485.25 158.59   Q 484.56 161.25 481.93 160.71   L 459.99 156.25   Q 458.14 155.87 457.28 154.12   C 456.17 151.84 455.87 148.81 455.43 146.72   Q 450.52 123.02 446.00 99.23   Q 445.34 95.79 448.64 96.97   C 468.91 104.27 480.44 132.03 484.49 151.94   C 484.86 153.77 485.79 156.51 485.25 158.59   Z"/>
<path d="   M 329.75 124.75   C 329.76 120.13 329.77 118.96 333.83 116.10   C 345.08 108.16 359.09 102.52 372.04 98.01   Q 375.82 96.70 377.53 100.69   Q 378.14 102.12 378.53 103.62   Q 385.25 129.52 390.79 155.81   C 391.87 160.93 392.74 163.29 387.12 164.63   Q 363.34 170.29 341.25 180.75   C 338.78 181.92 332.20 185.07 331.93 179.75   C 331.01 161.38 329.71 144.81 329.75 124.75   Z   M 375.44 128.47   C 364.93 133.10 356.65 141.33 353.59 152.45   Q 352.98 154.69 355.23 154.75   L 382.48 155.49   Q 384.49 155.54 384.02 153.60   L 378.28 129.81   Q 377.71 127.46 375.44 128.47   Z"/>
<path d="   M 222.02 108.35   C 248.26 105.25 274.25 110.39 299.31 117.94   C 302.47 118.89 303.43 120.60 303.63 123.93   Q 304.04 130.67 303.53 137.11   Q 303.31 139.85 300.83 138.69   C 297.06 136.95 279.43 123.93 277.13 133.23   Q 272.94 150.16 269.50 167.27   Q 269.06 169.43 267.20 170.61   C 264.16 172.54 258.61 175.63 254.73 174.24   Q 252.30 173.37 253.18 170.95   C 257.61 158.76 259.51 145.47 261.74 132.47   C 263.17 124.14 263.23 123.08 255.01 121.48   Q 243.74 119.30 229.75 117.50   C 225.82 117.00 224.56 118.79 223.37 122.32   Q 218.52 136.76 216.81 151.92   Q 216.67 153.24 216.17 154.74   A 2.03 2.02 13.8 0 1 213.91 156.10   C 209.88 155.41 210.69 153.38 211.12 150.41   Q 213.47 133.93 216.90 117.64   C 217.27 115.87 217.56 112.39 218.79 110.40   Q 219.91 108.60 222.02 108.35   Z"/>
<path d="   M 185.07 108.52   Q 188.07 109.20 187.50 112.23   Q 183.89 131.39 179.14 150.28   C 178.40 153.23 176.40 156.89 173.73 157.71   Q 169.12 159.14 170.21 154.44   C 172.63 143.89 177.02 130.42 175.57 119.78   Q 175.27 117.53 173.02 117.25   C 159.94 115.63 147.45 116.83 134.50 116.00   Q 132.45 115.87 134.31 115.06   C 143.72 111.00 155.20 109.40 165.32 108.41   C 173.00 107.65 178.74 107.08 185.07 108.52   Z"/>
<path d="   M 238.79 209.84   Q 240.74 210.55 239.45 212.17   Q 232.32 221.17 223.87 228.91   A 0.49 0.46 -40.4 0 1 223.17 228.87   C 218.45 222.98 231.34 207.15 238.79 209.84   Z"/>
<path d="   M 118.61 214.04   C 124.34 206.87 131.34 209.46 135.55 216.42   Q 137.23 219.19 134.02 218.75   Q 126.11 217.68 118.77 214.63   A 0.39 0.37 30.7 0 1 118.61 214.04   Z"/>
<path d="   M 251.42 217.26   C 264.65 218.77 274.01 230.03 276.75 242.75   Q 277.49 246.17 276.13 248.85   C 265.34 270.01 236.92 276.38 223.94 252.81   C 222.63 250.44 222.08 249.14 222.43 246.30   C 224.09 232.67 235.86 215.48 251.42 217.26   Z   M 251.80 222.18   C 240.64 220.49 225.11 238.10 228.00 248.50   C 229.03 252.19 234.06 260.24 238.87 260.95   Q 239.87 261.09 239.34 260.23   Q 233.24 250.41 238.44 240.51   C 241.88 233.98 244.61 240.08 244.80 243.64   C 245.15 250.06 245.65 255.23 243.44 261.44   A 0.79 0.79 -80.4 0 0 244.19 262.50   C 254.63 262.42 264.70 258.33 269.69 248.69   C 273.49 241.34 269.74 236.69 264.91 231.15   C 261.46 227.19 256.85 222.94 251.80 222.18   Z"/>
<path d="   M 135.56 225.19   C 143.90 233.07 146.79 244.70 147.94 256.09   Q 148.06 257.29 147.69 258.43   C 144.33 269.01 135.55 273.47 124.73 271.99   Q 108.96 269.84 104.81 252.94   C 101.62 239.91 120.19 210.66 135.56 225.19   Z   M 128.19 227.70   C 121.16 226.22 116.57 233.11 113.00 238.75   C 100.45 258.60 129.27 278.72 140.75 259.98   Q 142.44 257.22 142.30 253.66   C 141.95 245.39 137.96 229.75 128.19 227.70   Z"/>
<path d="   M 124.06 241.19   C 129.14 244.87 129.36 269.05 121.81 262.19   C 115.95 256.86 118.23 248.76 121.19 242.44   Q 122.35 239.95 124.06 241.19   Z"/>
<path d="   M 152.97 271.89   C 148.08 266.22 156.71 260.71 161.49 258.82   C 171.70 254.77 184.27 256.18 194.17 260.61   C 200.02 263.23 200.28 272.78 193.25 271.75   Q 186.21 270.72 180.06 273.56   C 176.07 275.41 172.36 277.76 168.63 274.61   C 162.88 269.74 157.12 276.70 152.97 271.89   Z"/>
<path d="   M 185.10 347.50   Q 183.77 346.48 183.23 344.89   Q 177.78 328.94 179.02 313.55   A 1.51 1.41 69.6 0 1 179.38 312.69   Q 182.20 309.51 183.00 314.00   Q 184.85 324.34 187.41 346.19   C 187.62 348.01 186.75 348.75 185.10 347.50   Z"/>
<path d="   M 374.19 360.81   C 365.34 357.34 355.81 349.32 358.25 339.14   C 360.86 328.27 372.42 323.00 383.00 321.75   Q 402.50 319.45 416.06 331.44   C 426.65 340.80 425.30 356.77 410.75 361.75   Q 392.50 368.00 374.19 360.81   Z"/>
<path d="   M 244.79 368.22   C 246.08 378.14 232.13 373.34 234.52 365.91   A 1.40 1.34 -8.2 0 1 235.10 365.17   C 238.52 363.04 244.15 363.23 244.79 368.22   Z"/>
<ellipse cx="0.00" cy="0.00" transform="translate(255.92,369.04) rotate(38.7)" rx="5.47" ry="4.53"/>
<ellipse cx="0.00" cy="0.00" transform="translate(226.39,376.62) rotate(23.7)" rx="5.26" ry="3.91"/>
</g>
</svg>
